<?xml version="1.0" standalone="no"?><!DOCTYPE svg PUBLIC "-//W3C//DTD SVG 1.1//EN" "http://www.w3.org/Graphics/SVG/1.1/DTD/svg11.dtd"><svg t="1614148282934" class="icon" viewBox="0 0 1024 1024" version="1.1" xmlns="http://www.w3.org/2000/svg" p-id="5470" xmlns:xlink="http://www.w3.org/1999/xlink" width="300" height="300"><defs><style type="text/css"></style></defs><path d="M132.992 838.415v55.375c0 12.108 9.815 21.925 21.925 21.925H471.69v-414.11H132.992v336.81zM793.982 915.714h51.556c12.11 0 21.924-9.816 21.924-21.925v-7.585c0.644-2.856 0.996-5.834 0.996-8.906V501.604H529.792V915.71h264.012c0.058 0 0.118 0.004 0.178 0.004zM172.228 280.94H120.67c-12.109 0-21.925 9.816-21.925 21.924v168.829h370.42V286.77c13.635-1.323 25.706-2.927 35.542-4.25 0.288 0 0.574-0.268 0.612-0.307l0.01 0.01h1.279v-0.352h-1.587l-0.017-0.012h1.618v0.341c7.597 1.28 16.5 2.322 25.71 3.247v186.226h370.402V362.897c0.324-1.502 0.5-3.06 0.5-4.658v-55.375c0-12.108-9.815-21.924-21.924-21.924h-51.557c-1.091 0-2.164 0.082-3.213 0.236H695.455c44.125-9.84 78.756-30.227 84.442-67.647 6.672-42.698-45.049-107.419-107.629-99.212-74.886 10.203-129.785 74.925-168.52 125.155-38.402-49.27-88.539-106.775-160.297-123.48-69.512-16.115-117.123 54.507-115.843 98.2 1.244 37.087 35.256 57.171 80.59 66.998h-132.65a22.05 22.05 0 0 0-3.32-0.25zM656.75 154.069c50.149-24.281 96.802 41.409 72.997 72.963-18.4 23.952-76.484 26.235-107.917 27.554-25.723 1.293-51.77 0.684-77.445-1.634 29.832-37.474 64.415-75.535 112.365-98.883zM277.76 227.326c-12.664-13.781-4.124-32.524 3.82-46.619 14.598-24.96 34.883-40.119 69.514-25.99 48.234 19.734 83.772 61.492 112.68 98.879-61.299 6.602-152.698 9.219-186.014-26.27z" fill="#ffffff" p-id="5471"></path></svg>