<?xml version="1.0" standalone="no"?><!DOCTYPE svg PUBLIC "-//W3C//DTD SVG 1.1//EN" "http://www.w3.org/Graphics/SVG/1.1/DTD/svg11.dtd"><svg t="1614148171502" class="icon" viewBox="0 0 1024 1024" version="1.1" xmlns="http://www.w3.org/2000/svg" p-id="4654" xmlns:xlink="http://www.w3.org/1999/xlink" width="300" height="300"><defs><style type="text/css"></style></defs><path d="M868.343972 738.184631A418.779714 418.779714 0 0 1 714.02897 892.511345a32.995724 32.995724 0 0 1-32.886804-57.212264 358.28814 358.28814 0 0 0 130.094949-130.001253 32.9723 32.9723 0 0 1 57.165416 32.875091z" fill="#ffffff" p-id="4655"></path><path d="M511.999995 321.255385a71.137623 71.137623 0 1 1-50.278863 20.835336 70.891675 70.891675 0 0 1 50.278863-20.835336zM476.044693 479.025375h71.898892a110.325388 110.325388 0 0 1 110.091151 110.091152v96.036962a17.567737 17.567737 0 0 1-17.567737 17.567737h-37.208466V566.711806a8.819004 8.819004 0 0 0-17.567737 0v136.021132h-147.334755V566.711806a8.819004 8.819004 0 0 0-17.626296 0v136.021132h-37.114772a17.567737 17.567737 0 0 1-17.626296-17.567737v-96.036962a110.348812 110.348812 0 0 1 110.091152-110.091152z" fill="#ffffff" p-id="4656"></path><path d="M165.915576 312.225569a397.300228 397.300228 0 0 1 146.397809-146.397809 31.264716 31.264716 0 0 1 31.176877 54.202325 339.373543 339.373543 0 0 0-123.419208 123.372361A31.25886 31.25886 0 0 1 165.915576 312.225569z" fill="#ffffff" p-id="4657"></path><path d="M511.988283 0.000035a66.581723 66.581723 0 1 1-47.081535 19.500188A66.417758 66.417758 0 0 1 511.988283 0.000035z" fill="#ffffff" p-id="4658"></path><path d="M511.988283 127.986855c20.097491 0 40.827421 6.500063 58.92219 17.07584a130.539998 130.539998 0 0 1 39.258036 34.994932c10.856861 14.885729 17.450619 31.703909 17.450619 48.803174a65.433964 65.433964 0 0 1-9.100088 33.390412 20.905607 20.905607 0 0 1-18.340717 10.364965H423.575719a20.905607 20.905607 0 0 1-18.469548-11.10281 65.398829 65.398829 0 0 1-8.678462-32.664279c0-17.099264 6.593757-33.964291 17.450619-48.803173a130.399456 130.399456 0 0 1 39.258036-34.994933c18.03621-10.564066 38.76614-17.064129 58.851919-17.064128zM511.988283 751.372146a66.581723 66.581723 0 1 1-47.081535 19.5119 66.417758 66.417758 0 0 1 47.081535-19.5119z" fill="#ffffff" p-id="4659"></path><path d="M511.988283 879.358966c20.097491 0 40.827421 6.500063 58.92219 17.07584a130.539998 130.539998 0 0 1 39.258036 34.994932c10.856861 14.885729 17.450619 31.703909 17.450619 48.803173a65.4691 65.4691 0 0 1-9.100088 33.390412 20.929031 20.929031 0 0 1-18.340717 10.364965H423.575719a20.917319 20.917319 0 0 1-18.469548-11.114521 65.328558 65.328558 0 0 1-8.678462-32.652568c0-17.099264 6.593757-33.964291 17.450619-48.803173a130.399456 130.399456 0 0 1 39.258036-34.994932c18.03621-10.564066 38.76614-17.064129 58.851919-17.064128zM887.680194 375.691946a66.581723 66.581723 0 1 1-47.081535 19.500188 66.37091 66.37091 0 0 1 47.081535-19.500188z" fill="#ffffff" p-id="4660"></path><path d="M887.680194 503.667054c20.085779 0 40.815709 6.511775 58.92219 17.075841a130.539998 130.539998 0 0 1 39.246324 35.006644c10.856861 14.862305 17.462331 31.703909 17.462331 48.826597a65.410541 65.410541 0 0 1-9.1118 33.402123 20.882183 20.882183 0 0 1-18.340717 10.364965H799.197359a20.917319 20.917319 0 0 1-18.410988-11.137945 65.398829 65.398829 0 0 1-8.737022-32.629143c0-17.087552 6.593757-33.964291 17.450619-48.791462A130.727387 130.727387 0 0 1 828.804852 520.742895c18.059634-10.564066 38.789563-17.07584 58.875342-17.075841zM136.308084 375.691946a66.581723 66.581723 0 1 1-47.081535 19.500188 66.37091 66.37091 0 0 1 47.081535-19.500188z" fill="#ffffff" p-id="4661"></path><path d="M136.308084 503.667054c20.085779 0 40.815709 6.511775 58.922189 17.075841a130.539998 130.539998 0 0 1 39.246325 35.006644c10.868573 14.874017 17.462331 31.703909 17.46233 48.791461a65.410541 65.410541 0 0 1-9.111799 33.402124 20.882183 20.882183 0 0 1-18.352429 10.364965H47.83696a20.893895 20.893895 0 0 1-18.469547-11.10281A65.269999 65.269999 0 0 1 20.688951 604.576136c0-17.087552 6.582045-33.964291 17.450618-48.791462a130.539998 130.539998 0 0 1 39.246325-35.006644c18.106481-10.599201 38.836411-17.110976 58.92219-17.110976z" fill="#ffffff" p-id="4662"></path><path d="M711.768588 165.874608a397.300228 397.300228 0 0 1 146.397808 146.397808 31.272914 31.272914 0 0 1-54.249172 31.13003 339.642915 339.642915 0 0 0-123.325513-123.325514 31.264716 31.264716 0 0 1 31.176877-54.202324zM312.21969 858.125427a397.300228 397.300228 0 0 1-146.397808-146.397808 31.264716 31.264716 0 1 1 54.202324-31.176877 339.642915 339.642915 0 0 0 123.325514 123.325514 31.264716 31.264716 0 0 1-31.176877 54.202324z" fill="#ffffff" p-id="4663"></path></svg>