<?xml version="1.0" standalone="no"?><!DOCTYPE svg PUBLIC "-//W3C//DTD SVG 1.1//EN" "http://www.w3.org/Graphics/SVG/1.1/DTD/svg11.dtd"><svg t="1614147694466" class="icon" viewBox="0 0 1024 1024" version="1.1" xmlns="http://www.w3.org/2000/svg" p-id="3154" xmlns:xlink="http://www.w3.org/1999/xlink" width="300" height="300"><defs><style type="text/css"></style></defs><path d="M324.44177539 286.71870781c20.73980479 0 37.4756124-16.73580762 37.4756124-37.38563437V99.56558955A37.43062383 37.43062383 0 0 0 287.01115156 99.61057813v149.63251728c0 20.73980479 16.78079619 37.4756124 37.4756124 37.4756124z m187.46803916 0c20.69481622 0 37.4756124-16.73580762 37.4756124-37.38563437V99.56558955a37.43062383 37.43062383 0 1 0-74.95122481 0v149.63251728c0 20.73980479 16.78079619 37.4756124 37.47561241 37.47561241z m-112.47182578-152.78172802h37.52060097v81.51957948H399.48297734V133.93697979z m187.51302774 0h37.4756124v81.51957948h-37.4756124V133.93697979z m374.75612401 108.19789628a112.24688203 112.24688203 0 0 0-112.4268372-112.24688203h-74.9512248v85.34362148h64.06395205c20.69481622 0 37.61057813 16.78079619 37.61057812 37.38563526v588.90247911a37.65556758 37.65556758 0 0 1-37.61057812 37.4756124H185.20165479a37.56558955 37.56558955 0 0 1-37.47561241-37.4756124V252.70722792c0-20.64982763 16.82578477-37.43062383 37.47561241-37.43062382h64.24390722V129.88799404H174.49433721A112.33685918 112.33685918 0 0 0 62.0675 242.17986464v607.6177919A112.24688203 112.24688203 0 0 0 174.49433721 961.99955h674.83095469a112.02193828 112.02193828 0 0 0 111.93196112-106.6682795l0.4498875-4.36390664V242.17986464z m-262.28429823 44.53884317c20.64982763 0 37.43062383-16.64583047 37.43062383-37.3406458V99.56558955a37.43062383 37.43062383 0 0 0-74.95122481 0v149.63251728c0 20.73980479 16.64583047 37.4756124 37.47561241 37.47561241zM286.29133174 436.9810669h449.88730313a37.56558955 37.56558955 0 0 0 37.4756124-37.43062296 37.52060097 37.52060097 0 0 0-37.4756124-37.34064667h-449.88730313a37.38563526 37.38563526 0 1 0 0 74.72628105z m449.88730313 109.77250253h-449.88730313a37.43062383 37.43062383 0 1 0 0 74.8162582h449.88730313a37.56558955 37.56558955 0 0 0 37.4756124-37.43062382 37.56558955 37.56558955 0 0 0-37.4756124-37.34064581z m0 173.74647656h-449.88730313a37.43062383 37.43062383 0 1 0 0 74.77126963h449.88730313a37.61057813 37.61057813 0 0 0 37.4756124-37.52060097 37.4756124 37.4756124 0 0 0-37.4756124-37.25066866z" p-id="3155" fill="#ffffff"></path></svg>